<svg xmlns="http://www.w3.org/2000/svg" width="100%" viewBox="0 0 720 280" preserveAspectRatio="xMidYMid meet">
  <defs>
    <style>
      .board-bg { fill: #0d1117; rx: 8; }
      .col-bg { fill: #161b22; rx: 6; stroke: #30363d; stroke-width: 1; }
      .col-title { font-family: -apple-system, BlinkMacSystemFont, 'Segoe UI', Helvetica, Arial, sans-serif; font-size: 14px; font-weight: 600; fill: #e6edf3; }
      .col-count { font-family: -apple-system, BlinkMacSystemFont, 'Segoe UI', Helvetica, Arial, sans-serif; font-size: 12px; fill: #8b949e; }
      .card { fill: #0d1117; rx: 6; stroke: #30363d; stroke-width: 1; }
      .card-title { font-family: -apple-system, BlinkMacSystemFont, 'Segoe UI', Helvetica, Arial, sans-serif; font-size: 13px; font-weight: 600; fill: #e6edf3; }
      .card-meta { font-family: -apple-system, BlinkMacSystemFont, 'Segoe UI', Helvetica, Arial, sans-serif; font-size: 11px; fill: #8b949e; }
      .label { rx: 10; }
      .label-text { font-family: -apple-system, BlinkMacSystemFont, 'Segoe UI', Helvetica, Arial, sans-serif; font-size: 10px; font-weight: 500; }
      .label-triage { fill: #122d42; }
      .label-triage-text { fill: #58a6ff; }
      .label-progress { fill: #2e2a1f; }
      .label-progress-text { fill: #d29922; }
      .label-done { fill: #12261e; }
      .label-done-text { fill: #3fb950; }
      .label-role { fill: #161b22; stroke: #30363d; stroke-width: 0.5; }
      .label-role-text { fill: #8b949e; }
      .dot-open { fill: #3fb950; }
      .dot-closed { fill: #bc8cff; }
      .role-badge { rx: 4; stroke-width: 0.5; }
      .role-badge-text { font-family: -apple-system, BlinkMacSystemFont, 'Segoe UI', Helvetica, Arial, sans-serif; font-size: 9px; font-weight: 600; }
      .role-manager { fill: #341a04; stroke: #d29922; }
      .role-manager-text { fill: #d29922; }
      .role-dev { fill: #0b2e13; stroke: #3fb950; }
      .role-dev-text { fill: #3fb950; }
      .role-qe { fill: #1e0c36; stroke: #bc8cff; }
      .role-qe-text { fill: #bc8cff; }
      .role-sre { fill: #0c2d6b; stroke: #58a6ff; }
      .role-sre-text { fill: #58a6ff; }
    </style>
    <!-- BotMinter logo avatar -->
    <symbol id="bm-logo" viewBox="0 0 1774.9 1404.5">
      <defs>
        <clipPath clipPathUnits="userSpaceOnUse" id="c1"><rect x="3800.8" y="-663.33" width="1615.1" height="1615.1" ry="7.58" fill="#020202"/></clipPath>
        <clipPath clipPathUnits="userSpaceOnUse" id="c3"><rect x="3800.8" y="-663.33" width="1615.1" height="1615.1" ry="7.58" fill="#020202"/></clipPath>
        <clipPath clipPathUnits="userSpaceOnUse" id="c4"><rect x="499.07" y="104.72" width="63.74" height="63.74" ry=".3" fill="#020202"/></clipPath>
        <clipPath clipPathUnits="userSpaceOnUse" id="c5"><rect x="3800.8" y="-663.33" width="1615.1" height="1615.1" ry="7.58" fill="#020202"/></clipPath>
      </defs>
      <g transform="translate(-3826 662.8)">
        <path transform="matrix(1.1145 0 0 1.1145 -434.84 76.453)" d="m4815.2 529.96c67.956-22.995 71.161-31.566 126.62-57.18 56.082-25.899 117.53-81.743 149.06-135.5 13.739-23.423 41.516-51.453 61.711-62.306 74.076-39.81 94.518-201.75 35.285-279.41l-27.218-35.73 95.413-19.102c35.699-7.1309 91.595-35.638 103.32-69.635 8.6021-34.959 33.613-121.79-118.47-136.02-40.465-9.1361-117.75-4.4991-171.52-11.085-102-12.493-26.159-21.148-63.146-76.872-80.962-121.98-204.36-204.59-339.73-227.4-38.732-6.5258-76.182-17.638-83.238-24.694-17.427-17.427-108.52-16.22-142.62 1.88-15.224 8.0804-55.852 20.21-90.266 26.971-219.54 43.127-350.31 198.91-376.45 448.46-6.1004 58.232-11.978 72.55-41.669 101.7-107.05 105.09-57.948 328.39 77.647 353.1 22.54 4.1066 55.506 22.87 80.863 46.024 23.541 21.497 62.226 50.183 85.96 63.74 55.456 31.678-27.098-13.325 45.778 27.601 101.64 57.08 471.95 106.31 592.68 65.458z" clip-path="url(#c5)" fill="#fff" stroke="#fff" stroke-linejoin="round" stroke-width="101.35"/>
        <path transform="matrix(28.238 0 0 28.238 -10292 -3619.9)" d="m513.81 148.14c-0.93672-0.53508-2.4633-1.667-3.3924-2.5154-1.0007-0.91381-2.3013-1.654-3.1909-1.8161-5.3515-0.97495-7.2894-9.7879-3.0643-13.936 1.1718-1.1503 1.4035-1.7161 1.6443-4.0143 1.0318-9.8489 6.1931-15.997 14.858-17.699 1.3582-0.26681 2.9611-0.74604 3.5619-1.0649 1.3459-0.71436 4.941-0.76128 5.6288-0.0735 0.2785 0.2785 1.7571 0.7171 3.2857 0.97466 5.3426 0.90019 10.213 4.1598 13.408 8.9738 1.4598 2.1993 1.4598 2.1993 5.4855 2.6923 14.729 1.804 10.248 7.5222 1.4683 9.4599l-0.86074 0.18996 1.0754 1.4099c2.3378 3.065 1.5302 9.4564-1.3934 11.028-0.79702 0.42833-1.8928 1.5351-2.435 2.4595-1.2444 2.1215-3.5884 4.5235-5.8827 5.3483-10.627 3.8203-16.42 4.9749-30.196-1.4166zm22.906 1.3825c9.0915-1.9088 13.481-6.7092 13.548-14.815 0.0609-7.3979-0.32139-7.9645-4.3906-6.506-2.2702 0.8137-2.3887 1.0818-0.77366 1.7507 2.9543 1.2237 3.0759 10.189 0.15873 11.698-3.8932 2.0132-17.027 2.6526-23.302 1.1344-4.5126-1.0917-4.9614-1.628-5.1323-6.1328-0.22611-5.9609 0.47184-6.676 7.4863-7.6705 2.0694-0.2934 3.4848-0.63926 3.1452-0.76857-5.8358-2.2224-7.2506-2.3914-11.545-1.3788-5.2109 1.2288-5.3007 1.314-4.2798 4.066 0.6217 1.6759 0.80274 3.2249 0.80583 6.8947 8e-3 9.2088 10.996 14.517 24.279 11.728zm-27.482-9.1374c1.8543-2.8292 0.63394-9.6813-1.7661-9.9165-1.2554-0.12306-1.2554-0.12306-1.2174 4.939 0.0472 6.2859 1.0402 7.9425 2.9835 4.9776zm16.958-1.5466c2.9334-1.5169 1.9484-5.9831-1.3195-5.9831-4.262 0-4.4249 6.1331-0.17403 6.5528 0.18101 0.0179 0.85311-0.23848 1.4935-0.56966zm15.155-0.87683c1.6339-1.8286 0.83365-4.5576-1.5592-5.3171-3.2686-1.0374-5.3732 3.1167-2.8549 5.635 1.4681 1.4681 2.9111 1.3642 4.4141-0.31792zm6.3022-12.876c2.3909-1.1294 4.8437-2.178 5.4506-2.3303 3.3181-0.83278-6.5238-2.1148-12.831-1.6714-5.2339 0.3679-17.545 3.0973-16.859 3.7377 0.27353 0.25535 7.2352 1.5807 11.043 2.1024 6.0989 0.83554 8.1362 0.55173 13.196-1.8384zm-32.947-0.4358c3.053-0.66493 7.488-1.8696 9.8557-2.677 4.8231-1.6448 11.799-3.1109 14.803-3.1109 5.0174 0 5.2851-0.37278 2.4754-3.447-6.4835-7.094-21.53-7.5295-28.246-0.81751-2.465 2.4635-3.6714 4.9949-4.8278 10.13-0.31041 1.3783-0.7699 1.3843 5.9399-0.0771z" clip-path="url(#c4)" stroke-width=".41158"/>
        <path transform="matrix(1.1145 0 0 1.1145 -434.84 76.453)" d="m4048.2-135.36c-6.8281-6.828 29.459-129.34 52.264-176.46 17.972-37.129 29.829-58.506 65.808-94.841 38.542-38.922 57.372-49.217 102.28-70.71 85.209-40.779 137.25-56.773 244.72-56.156 78.296 0.44848 97.334 7.5968 146.27 20.518 81.456 21.508 151.13 57.901 202.25 105.64 23.057 21.533 47.442 48.083 54.19 59.001 19.595 31.706 10.99 35.737-88.274 41.345-94.212 5.3232-212.07 27.094-320.06 59.124-187.26 55.539-243.56 70.917-326.29 89.133-115.11 25.346-128.8 27.752-133.15 23.401z" clip-path="url(#c3)" fill="#fe6b05" stroke="#000" stroke-width="11.252"/>
        <path transform="matrix(1.1145 0 0 1.1145 -434.84 76.453)" d="m4746.7-97.12c-79.869-8.7643-320.57-51.098-328.37-58.396-15.848-14.839 284.26-77.04 426.28-89.489 95.937-8.4094 332.84 2.8046 367.29 20.775 9.6423 5.0293-33.137 10.162-57.655 19.747-15.299 5.9807-67.374 27.937-115.27 49.785-127.74 58.264-188.47 68.97-292.28 57.579z" clip-path="url(#c1)" fill="#fe6b05" stroke="#000" stroke-width="11.252"/>
      </g>
    </symbol>
  </defs>

  <!-- Board background -->
  <rect class="board-bg" x="0" y="0" width="720" height="280"/>

  <!-- Column: Triage -->
  <rect class="col-bg" x="16" y="16" width="220" height="248"/>
  <text class="col-title" x="28" y="40">Triage</text>
  <text class="col-count" x="76" y="40">1</text>

  <!-- Card 1 - manager -->
  <rect class="card" x="28" y="56" width="196" height="90"/>
  <circle class="dot-open" cx="42" cy="76" r="5"/>
  <text class="card-title" x="54" y="80">Add rate limiting</text>
  <text class="card-meta" x="42" y="98">#51</text>
  <rect class="label label-triage" x="42" y="110" width="88" height="20"/>
  <text class="label-text label-triage-text" x="52" y="124">status/po:triage</text>
  <!-- Avatar -->
  <use href="#bm-logo" x="191" y="63" width="26" height="22"/>
  <rect class="role-badge role-manager" x="184" y="92" width="40" height="14"/>
  <text class="role-badge-text role-manager-text" x="204" y="103" text-anchor="middle">manager</text>

  <!-- Column: In Progress -->
  <rect class="col-bg" x="250" y="16" width="220" height="248"/>
  <text class="col-title" x="262" y="40">In Progress</text>
  <text class="col-count" x="346" y="40">2</text>

  <!-- Card 2 - dev -->
  <rect class="card" x="262" y="56" width="196" height="90"/>
  <circle class="dot-open" cx="276" cy="76" r="5"/>
  <text class="card-title" x="288" y="80">User authentication</text>
  <text class="card-meta" x="276" y="98">#42</text>
  <rect class="label label-progress" x="276" y="110" width="96" height="20"/>
  <text class="label-text label-progress-text" x="286" y="124">status/dev:coding</text>
  <!-- Avatar -->
  <use href="#bm-logo" x="425" y="63" width="26" height="22"/>
  <rect class="role-badge role-dev" x="425" y="92" width="26" height="14"/>
  <text class="role-badge-text role-dev-text" x="438" y="103" text-anchor="middle">dev</text>

  <!-- Card 3 - sre -->
  <rect class="card" x="262" y="156" width="196" height="90"/>
  <circle class="dot-open" cx="276" cy="176" r="5"/>
  <text class="card-title" x="288" y="180">Infra monitoring</text>
  <text class="card-meta" x="276" y="198">#48</text>
  <rect class="label label-progress" x="276" y="210" width="96" height="20"/>
  <text class="label-text label-progress-text" x="286" y="224">status/sre:coding</text>
  <!-- Avatar -->
  <use href="#bm-logo" x="425" y="163" width="26" height="22"/>
  <rect class="role-badge role-sre" x="427" y="192" width="22" height="14"/>
  <text class="role-badge-text role-sre-text" x="438" y="203" text-anchor="middle">sre</text>

  <!-- Column: Done -->
  <rect class="col-bg" x="484" y="16" width="220" height="248"/>
  <text class="col-title" x="496" y="40">Done</text>
  <text class="col-count" x="536" y="40">1</text>

  <!-- Card 4 - qe -->
  <rect class="card" x="496" y="56" width="196" height="90"/>
  <circle class="dot-closed" cx="510" cy="76" r="5"/>
  <text class="card-title" x="522" y="80">Search endpoint</text>
  <text class="card-meta" x="510" y="98">#39 · closed</text>
  <rect class="label label-done" x="510" y="110" width="56" height="20"/>
  <text class="label-text label-done-text" x="520" y="124">merged</text>
  <!-- Avatar -->
  <use href="#bm-logo" x="659" y="63" width="26" height="22"/>
  <rect class="role-badge role-qe" x="661" y="92" width="22" height="14"/>
  <text class="role-badge-text role-qe-text" x="672" y="103" text-anchor="middle">qe</text>
</svg>
